HIERARCHY
ROOT Hips
{
 OFFSET 0.000000 0.000000 0.000000
 CHANNELS 6 Xposition Yposition Zposition Yrotation Xrotation Zrotation
 JOINT Chest
 {
  OFFSET 0.000000 10.385163 0.011643
  CHANNELS 3 Yrotation Xrotation Zrotation
  JOINT Chest2
  {
   OFFSET 0.000000 11.579334 -0.021150
   CHANNELS 3 Yrotation Xrotation Zrotation
   JOINT Chest3
   {
    OFFSET 0.000000 10.463212 0.000000
    CHANNELS 3 Yrotation Xrotation Zrotation
    JOINT Chest4
    {
     OFFSET 0.000000 10.463212 0.000000
     CHANNELS 3 Yrotation Xrotation Zrotation
     JOINT Neck
     {
      OFFSET 0.000000 14.544862 0.000000
      CHANNELS 3 Yrotation Xrotation Zrotation
      JOINT Head
      {
       OFFSET 0.000000 9.730630 -0.050295
       CHANNELS 3 Yrotation Xrotation Zrotation
       End Site
       {
        OFFSET 0.000000 18.757589 -0.026270
       }
      }
     }
     JOINT RightCollar
     {
      OFFSET -2.985174 8.102313 0.000000
      CHANNELS 3 Yrotation Xrotation Zrotation
      JOINT RightShoulder
      {
       OFFSET -13.558590 0.000000 0.000000
       CHANNELS 3 Yrotation Xrotation Zrotation
       JOINT RightElbow
       {
        OFFSET -28.208579 0.000000 0.000000
        CHANNELS 3 Yrotation Xrotation Zrotation
        JOINT RightWrist
        {
         OFFSET -23.322907 0.000000 0.010349
         CHANNELS 3 Yrotation Xrotation Zrotation
         End Site
         {
          OFFSET -17.603338 0.000000 0.000000
         }
        }
       }
      }
     }
     JOINT LeftCollar
     {
      OFFSET 2.985174 8.102313 0.000000
      CHANNELS 3 Yrotation Xrotation Zrotation
      JOINT LeftShoulder
      {
       OFFSET 13.558590 0.000000 0.000000
       CHANNELS 3 Yrotation Xrotation Zrotation
       JOINT LeftElbow
       {
        OFFSET 28.208579 0.000000 0.000000
        CHANNELS 3 Yrotation Xrotation Zrotation
        JOINT LeftWrist
        {
         OFFSET 23.322907 0.000000 0.010349
         CHANNELS 3 Yrotation Xrotation Zrotation
         End Site
         {
          OFFSET 17.603338 0.000000 0.000000
         }
        }
       }
      }
     }
    }
   }
  }
 }
 JOINT RightHip
 {
  OFFSET -8.341224 -0.057053 -0.005822
  CHANNELS 3 Yrotation Xrotation Zrotation
  JOINT RightKnee
  {
   OFFSET 0.000000 -44.280013 0.005508
   CHANNELS 3 Yrotation Xrotation Zrotation
   JOINT RightAnkle
   {
    OFFSET 0.000000 -43.261728 0.009315
    CHANNELS 3 Yrotation Xrotation Zrotation
    JOINT RightToe
    {
     OFFSET 0.000000 -8.082955 18.257715
     CHANNELS 3 Yrotation Xrotation Zrotation
     End Site
     {
      OFFSET 0.000000 -1.634678 7.189621
     }
    }
   }
  }
 }
 JOINT LeftHip
 {
  OFFSET 8.341224 -0.057053 -0.005822
  CHANNELS 3 Yrotation Xrotation Zrotation
  JOINT LeftKnee
  {
   OFFSET 0.000000 -44.280013 0.005508
   CHANNELS 3 Yrotation Xrotation Zrotation
   JOINT LeftAnkle
   {
    OFFSET 0.000000 -43.261728 0.009315
    CHANNELS 3 Yrotation Xrotation Zrotation
    JOINT LeftToe
    {
     OFFSET 0.000000 -8.082955 18.257715
     CHANNELS 3 Yrotation Xrotation Zrotation
     End Site
     {
      OFFSET 0.000000 -1.634678 7.189621
     }
    }
   }
  }
 }
}
MOTION
Frames: 17
Frame Time: 0.016667
0.000000 95.489079 0.000000 0.000000 -5.826342 0.000000 0.000000 11.116423 0.000000 0.000000 -5.290081 0.000000 0.000000 0.000000 0.000000 0.000000 0.000000 0.000000 0.000000 12.665069 0.000000 0.000000 0.575450 0.000000 0.000000 0.000000 0.000000 0.000000 0.000000 0.000000 2.337306 0.000000 0.000000 -2.337306 0.000000 0.000000 0.000000 0.000000 0.000000 0.000000 0.000000 0.000000 -2.337306 0.000000 0.000000 2.337306 0.000000 0.000000 0.000000 8.578828 0.000000 0.000000 1.905768 0.000000 0.000000 -4.658254 0.000000 0.000000 0.000000 0.000000 0.000000 8.578828 0.000000 0.000000 1.905768 0.000000 0.000000 -4.658254 0.000000 0.000000 0.000000 0.000000
-47.603889 97.487045 -237.191127 104.995277 -12.946197 -0.725941 -0.409851 6.868436 1.878305 -0.209663 3.050967 0.839334 -0.209662 3.050967 0.839334 -0.161402 2.287943 0.630400 -1.361140 15.421700 -0.459393 -2.371979 -7.542492 -0.350913 -0.042091 -4.599062 5.392231 -9.566279 -5.906582 76.276233 1.960761 17.540315 -0.247882 0.751423 -0.416407 0.748796 0.570011 -6.540161 -13.285777 7.453749 -1.097183 -76.484509 -2.530178 16.644338 -1.210886 2.010744 -1.574680 -0.180791 -5.383189 17.144027 -0.369466 -0.491780 -1.088542 0.533467 -4.191710 -3.281798 3.194819 -0.000000 -0.000000 0.000000 5.509720 17.421881 3.483546 0.694299 -1.231760 0.243778 4.234968 -4.196418 -3.505264 -0.000000 0.000000 -0.000000
-47.598514 97.483990 -237.165906 104.999843 -12.806982 -0.697784 -0.386154 6.779725 1.868892 -0.198661 3.011643 0.834772 -0.198660 3.011643 0.834772 -0.153078 2.258466 0.626915 -1.394333 15.461772 -0.432548 -2.443630 -7.467297 -0.289049 -0.027209 -4.534553 5.357590 -9.357685 -5.930074 76.317562 1.776703 17.560533 -0.286630 0.645918 -0.397013 0.941714 0.485064 -6.478477 -13.259308 7.493925 -1.122761 -76.486463 -2.461360 16.746798 -1.226149 2.019371 -1.557114 -0.226443 -5.326649 16.986228 -0.348788 -0.549033 -1.067338 0.588530 -4.195960 -3.321983 3.111131 -0.000000 0.000000 0.000000 5.500631 17.261683 3.426239 0.708426 -1.186586 0.297236 4.214816 -4.236384 -3.541737 0.000000 -0.000000 -0.000000
-47.595074 97.481445 -237.141852 105.008342 -12.674269 -0.673091 -0.362258 6.699640 1.863505 -0.187665 2.976150 0.832005 -0.187665 2.976150 0.832005 -0.144773 2.231862 0.624778 -1.435695 15.490302 -0.411582 -2.528404 -7.413496 -0.234995 -0.015224 -4.471760 5.323764 -9.173204 -5.962293 76.356279 1.603889 17.667317 -0.337437 0.539889 -0.355006 1.121165 0.411578 -6.424976 -13.231992 7.534118 -1.149248 -76.488738 -2.402650 16.852536 -1.242577 2.029643 -1.537251 -0.271318 -5.296778 16.835181 -0.337870 -0.592789 -1.042742 0.636024 -4.194936 -3.358876 3.040838 0.000000 0.000000 0.000000 5.485898 17.107413 3.375158 0.723395 -1.143431 0.344194 4.196510 -4.271271 -3.574589 0.000000 0.000000 0.000000
-47.594746 97.479484 -237.119141 105.022457 -12.550453 -0.653815 -0.336780 6.632487 1.864105 -0.176105 2.946406 0.831883 -0.176105 2.946406 0.831883 -0.136063 2.209570 0.624624 -1.493735 15.498583 -0.397375 -2.641993 -7.397155 -0.187052 -0.008234 -4.410689 5.291371 -9.014119 -6.010067 76.392458 1.434054 17.927751 -0.416150 0.420182 -0.270196 1.296391 0.355603 -6.385537 -13.203493 7.572264 -1.176828 -76.492315 -2.357414 16.973650 -1.259452 2.044619 -1.509448 -0.317585 -5.307849 16.692739 -0.342289 -0.618528 -1.011050 0.672581 -4.183540 -3.391518 2.991483 0.000000 0.000000 0.000000 5.463431 16.960151 3.334170 0.738211 -1.101837 0.381569 4.181979 -4.298469 -3.602035 0.000000 -0.000000 0.000000
-47.596352 97.478032 -237.097596 105.040463 -12.433140 -0.637968 -0.311113 6.573947 1.868738 -0.164550 2.920488 0.833557 -0.164550 2.920488 0.833557 -0.127372 2.190147 0.625819 -1.559940 15.495314 -0.389044 -2.768769 -7.402197 -0.146846 -0.004182 -4.351333 5.259778 -8.879126 -6.066403 76.425845 1.274217 18.274691 -0.508130 0.300793 -0.162725 1.458443 0.311071 -6.354327 -13.174033 7.610443 -1.205294 -76.496239 -2.322356 17.098048 -1.277507 2.061238 -1.479347 -0.363067 -5.345472 16.557046 -0.356013 -0.630759 -0.975927 0.701564 -4.166945 -3.420860 2.955526 -0.000000 -0.000000 -0.000000 5.435284 16.818800 3.299458 0.753845 -1.062244 0.412438 4.169270 -4.320582 -3.625861 0.000000 -0.000000 0.000000
-47.598293 97.477379 -237.077850 105.061098 -12.321646 -0.623091 -0.289247 6.519690 1.875680 -0.154731 2.896457 0.836316 -0.154731 2.896457 0.836316 -0.119990 2.172136 0.627837 -1.616943 15.495069 -0.389821 -2.874941 -7.401878 -0.127122 0.000264 -4.295439 5.227810 -8.788452 -6.118826 76.453604 1.159106 18.593740 -0.580489 0.219647 -0.071617 1.565607 0.271231 -6.321988 -13.143474 7.654882 -1.234976 -76.497912 -2.297574 17.192686 -1.300264 2.072113 -1.461669 -0.400482 -5.393243 16.429319 -0.370975 -0.629525 -0.944998 0.725535 -4.155403 -3.446463 2.923744 0.000000 0.000000 0.000000 5.401861 16.686014 3.265713 0.774041 -1.027985 0.439513 4.154360 -4.340349 -3.647810 0.000000 -0.000000 0.000000
-47.600309 97.477883 -237.060516 105.083703 -12.214673 -0.608941 -0.272004 6.468110 1.885590 -0.147012 2.873596 0.840462 -0.147012 2.873596 0.840462 -0.114191 2.155000 0.630906 -1.660330 15.504142 -0.404590 -2.950364 -7.384718 -0.138777 0.007680 -4.241599 5.195081 -8.759458 -6.163725 76.476705 1.107084 18.860058 -0.624198 0.197894 -0.009264 1.584957 0.234642 -6.283184 -13.110534 7.712958 -1.266119 -76.498538 -2.289936 17.235065 -1.334467 2.070092 -1.468827 -0.421902 -5.452326 16.308898 -0.385599 -0.606562 -0.921115 0.744475 -4.153572 -3.467828 2.893313 0.000000 0.000000 0.000000 5.354864 16.562753 3.229452 0.808973 -1.001648 0.462752 4.135387 -4.358200 -3.668479 0.000000 0.000000 0.000000
-47.602659 97.479185 -237.044982 105.108926 -12.113521 -0.595752 -0.258556 6.420803 1.897851 -0.141024 2.852619 0.845708 -0.141024 2.852619 0.845709 -0.109697 2.139274 0.634809 -1.694522 15.516251 -0.428451 -3.005195 -7.362247 -0.170895 0.015477 -4.191223 5.161949 -8.774795 -6.204553 76.494502 1.100772 19.098738 -0.647976 0.212273 0.036115 1.548610 0.202741 -6.243257 -13.076489 7.777312 -1.298435 -76.496953 -2.292450 17.247660 -1.373475 2.062435 -1.488462 -0.435296 -5.521537 16.196429 -0.401371 -0.570142 -0.901437 0.758430 -4.156805 -3.485457 2.867059 0.000000 0.000000 0.000000 5.302583 16.448036 3.194223 0.848461 -0.980643 0.482198 4.114206 -4.373706 -3.687271 0.000000 0.000000 0.000000
-47.604527 97.480495 -237.030038 105.137490 -12.021401 -0.581791 -0.250416 6.378246 1.908845 -0.137391 2.833732 0.850469 -0.137391 2.833732 0.850469 -0.106969 2.125113 0.638359 -1.715402 15.527110 -0.449973 -3.036053 -7.342243 -0.203562 0.019271 -4.150293 5.128326 -8.802637 -6.239432 76.501825 1.122375 19.270403 -0.644892 0.233514 0.061466 1.512162 0.173095 -6.208852 -13.045070 7.832045 -1.331509 -76.486969 -2.284486 17.264929 -1.400709 2.063406 -1.498119 -0.457213 -5.581025 16.095107 -0.415074 -0.545115 -0.885061 0.770069 -4.161385 -3.500422 2.844240 0.000000 0.000000 0.000000 5.270283 16.341650 3.165107 0.865725 -0.960542 0.500692 4.092377 -4.388318 -3.704132 0.000000 0.000000 0.000000
-47.605819 97.481617 -237.014716 105.169951 -11.939290 -0.565826 -0.248021 6.340276 1.916918 -0.136284 2.816862 0.854014 -0.136284 2.816861 0.854014 -0.106132 2.112461 0.641010 -1.718850 15.536078 -0.465631 -3.036567 -7.325877 -0.231704 0.015713 -4.123859 5.094778 -8.835876 -6.263966 76.494502 1.174497 19.339899 -0.603397 0.256248 0.057721 1.492406 0.144218 -6.183156 -13.017051 7.871797 -1.364407 -76.463336 -2.259868 17.304802 -1.412198 2.082395 -1.484902 -0.498882 -5.625621 16.006407 -0.426233 -0.539986 -0.873270 0.779921 -4.165074 -3.511430 2.824878 0.000000 -0.000000 -0.000000 5.279025 16.242355 3.146766 0.840659 -0.939574 0.519257 4.068833 -4.402120 -3.718754 0.000000 -0.000000 0.000000
-47.606630 97.482747 -236.999985 105.205750 -11.866217 -0.549087 -0.250938 6.307055 1.923763 -0.137536 2.802081 0.857088 -0.137536 2.802081 0.857088 -0.107064 2.101373 0.643319 -1.708980 15.543820 -0.478948 -3.013104 -7.311926 -0.260385 0.008195 -4.106901 5.060688 -8.881630 -6.282543 76.476747 1.254743 19.342275 -0.534931 0.286075 0.033981 1.472583 0.117596 -6.162966 -12.991671 7.901910 -1.398133 -76.431254 -2.224868 17.349384 -1.411885 2.109921 -1.461602 -0.549024 -5.660538 15.928865 -0.435494 -0.546251 -0.864786 0.787452 -4.170114 -3.519772 2.808949 0.000000 0.000000 0.000000 5.307653 16.151457 3.134244 0.793371 -0.919508 0.536843 4.044638 -4.415029 -3.731445 0.000000 0.000000 0.000000
-47.606414 97.483677 -236.987543 105.243931 -11.802475 -0.533537 -0.259380 6.279557 1.930782 -0.141264 2.789821 0.860313 -0.141264 2.789821 0.860313 -0.109857 2.092172 0.645753 -1.694012 15.547996 -0.489075 -2.981351 -7.304590 -0.284921 0.002452 -4.090302 5.024189 -8.929417 -6.306485 76.455877 1.337852 19.343469 -0.467044 0.310600 0.014368 1.458163 0.095254 -6.145335 -12.970369 7.922544 -1.435223 -76.400188 -2.177594 17.379417 -1.395035 2.131988 -1.444334 -0.590406 -5.681524 15.861278 -0.441444 -0.563244 -0.854877 0.793729 -4.179502 -3.530386 2.795655 -0.000000 0.000000 -0.000000 5.318117 16.072568 3.118241 0.757406 -0.901228 0.553190 4.024553 -4.428249 -3.743077 0.000000 0.000000 0.000000
-47.604529 97.484356 -236.978367 105.287050 -11.749923 -0.519632 -0.275563 6.258998 1.938245 -0.148462 2.780612 0.863840 -0.148462 2.780611 0.863840 -0.115258 2.085254 0.648429 -1.674132 15.547455 -0.494636 -2.942179 -7.305976 -0.302659 0.001127 -4.069817 4.982831 -8.980223 -6.340973 76.434069 1.422759 19.366618 -0.402563 0.321603 0.011587 1.453229 0.080248 -6.129295 -12.955144 7.931646 -1.477629 -76.371317 -2.114593 17.390138 -1.357532 2.142736 -1.440113 -0.616563 -5.683727 15.805896 -0.443600 -0.595371 -0.842526 0.799848 -4.195738 -3.545161 2.785353 0.000000 0.000000 0.000000 5.293545 16.009589 3.094817 0.744133 -0.886318 0.567907 4.010989 -4.442136 -3.754052 -0.000000 0.000000 -0.000000
-47.601619 97.484834 -236.971480 105.332542 -11.706701 -0.506925 -0.297277 6.244155 1.945906 -0.158139 2.773919 0.867530 -0.158140 2.773919 0.867530 -0.122522 2.080220 0.651239 -1.649149 15.543349 -0.497020 -2.894698 -7.313977 -0.316286 0.001562 -4.049701 4.939058 -9.033070 -6.380835 76.409189 1.510561 19.388551 -0.338578 0.327280 0.012890 1.453730 0.069521 -6.115802 -12.943999 7.931272 -1.523404 -76.343427 -2.039254 17.386289 -1.303546 2.148088 -1.441996 -0.633994 -5.672036 15.760480 -0.442547 -0.638226 -0.828753 0.804717 -4.216322 -3.562208 2.777689 0.000000 0.000000 0.000000 5.250832 15.958574 3.068085 0.742185 -0.873189 0.581391 4.001534 -4.456329 -3.763968 -0.000000 -0.000000 -0.000000
-47.599067 97.485061 -236.965647 105.371764 -11.667515 -0.496038 -0.318093 6.232350 1.954387 -0.167442 2.768579 0.871571 -0.167442 2.768579 0.871571 -0.129508 2.076201 0.654310 -1.626710 15.536782 -0.499515 -2.851952 -7.326507 -0.329134 0.001534 -4.033573 4.898360 -9.074533 -6.421858 76.382061 1.579452 19.405950 -0.293968 0.339782 0.004196 1.452918 0.055930 -6.104793 -12.932378 7.927761 -1.569223 -76.322396 -1.959902 17.362840 -1.240795 2.151810 -1.445237 -0.644929 -5.656815 15.717090 -0.438457 -0.677923 -0.811872 0.806123 -4.236741 -3.580808 2.770793 0.000000 -0.000000 0.000000 5.202614 15.911339 3.040954 0.751003 -0.857977 0.594578 3.993711 -4.470947 -3.772499 -0.000000 -0.000000 -0.000000
-47.597724 97.484751 -236.960614 105.402207 -11.631998 -0.487381 -0.335487 6.224202 1.963711 -0.175252 2.764878 0.875940 -0.175252 2.764878 0.875940 -0.135379 2.073413 0.657621 -1.610051 15.527801 -0.501619 -2.820163 -7.343435 -0.339069 0.000164 -4.023687 4.863231 -9.096777 -6.461691 76.351231 1.624955 19.421897 -0.275751 0.375229 -0.027197 1.435585 0.035883 -6.096021 -12.917815 7.920304 -1.616126 -76.313976 -1.874762 17.305821 -1.164370 2.153379 -1.449037 -0.645258 -5.639105 15.672749 -0.429590 -0.710028 -0.787869 0.801210 -4.257703 -3.603957 2.763311 0.000000 0.000000 0.000000 5.148067 15.865179 3.012673 0.775479 -0.836678 0.608587 3.986139 -4.487123 -3.778877 -0.000000 0.000000 0.000000
